<svg width="57" height="69" viewBox="0 0 57 69" fill="none" xmlns="http://www.w3.org/2000/svg">
<path d="M36.6323 68.0385H5.90843C4.34199 68.0362 2.84025 67.2888 1.73261 65.9601C0.624972 64.6315 0.00187635 62.8301 0 60.9511L0 12.7572C6.69276e-05 12.3813 0.12461 12.0208 0.346234 11.7551L9.79972 0.415318C10.0213 0.149473 10.3218 8.02817e-05 10.6352 0H36.6323C38.1987 0.00225074 39.7004 0.749673 40.8081 2.07832C41.9157 3.40697 42.5388 5.20835 42.5407 7.08734V38.2716H40.1773V7.08734C40.1773 5.95953 39.8038 4.87792 39.139 4.08044C38.4742 3.28296 37.5725 2.83494 36.6323 2.83494H11.1244L2.36337 13.344V60.9511C2.36337 62.0789 2.73687 63.1605 3.4017 63.958C4.06652 64.7555 4.96822 65.2035 5.90843 65.2035H36.6323C37.5725 65.2035 38.4742 64.7555 39.139 63.958C39.8038 63.1605 40.1773 62.0789 40.1773 60.9511V58.1162H42.5407V60.9511C42.5388 62.8301 41.9157 64.6315 40.8081 65.9601C39.7004 67.2888 38.1987 68.0362 36.6323 68.0385Z" fill="#0D0D0D"/>
<path d="M8.27182 14.1747H5.90845V11.3398H8.27182C8.58522 11.3398 8.88579 11.1904 9.1074 10.9246C9.32901 10.6588 9.45351 10.2982 9.45351 9.92229V1.41748H11.8169V9.92229C11.8169 11.0501 11.4434 12.1317 10.7786 12.9292C10.1137 13.7267 9.21203 14.1747 8.27182 14.1747Z" fill="#0D0D0D"/>
<path d="M37.541 58.1162C37.2276 58.1161 36.9271 57.9667 36.7056 57.7009L33.4335 53.7759C33.3236 53.6442 33.2365 53.4879 33.177 53.3158C33.1175 53.1438 33.0869 52.9593 33.0869 52.773C33.0869 52.5868 33.1175 52.4023 33.177 52.2302C33.2365 52.0582 33.3236 51.9018 33.4335 51.7702L51.4317 30.1821C51.6533 29.9164 51.9539 29.7671 52.2672 29.7671C52.5805 29.7671 52.8811 29.9164 53.1027 30.1821L56.3747 34.1071C56.4846 34.2388 56.5718 34.3951 56.6312 34.5672C56.6907 34.7392 56.7213 34.9237 56.7213 35.11C56.7213 35.2962 56.6907 35.4807 56.6312 35.6528C56.5718 35.8248 56.4846 35.9812 56.3747 36.1128L38.3765 57.7009C38.1549 57.9667 37.8544 58.1161 37.541 58.1162ZM35.9398 52.7723L37.541 54.6944L53.8684 35.1093L52.2672 33.1886L35.9398 52.7723Z" fill="#5E60CE"/>
<path d="M37.8139 58.1162H34.2688C33.9554 58.1162 33.6549 57.9669 33.4333 57.701C33.2117 57.4352 33.0872 57.0747 33.0872 56.6987V52.4463H35.4505V55.2813H37.8139V58.1162Z" fill="#5E60CE"/>
<path d="M37.8139 12.7572H35.4506V9.92226C35.4506 9.54633 35.3261 9.18579 35.1045 8.91996C34.8829 8.65414 34.5823 8.5048 34.2689 8.5048H31.9055V5.66986H34.2689C35.2091 5.66986 36.1108 6.11788 36.7756 6.91536C37.4405 7.71284 37.8139 8.79446 37.8139 9.92226V12.7572Z" fill="#0D0D0D"/>
<path d="M29.5422 5.66986H27.1788V8.5048H29.5422V5.66986Z" fill="#5E60CE"/>
<path d="M14.1802 29.7668H7.09013C6.77673 29.7668 6.47616 29.6175 6.25456 29.3517C6.03295 29.0858 5.90845 28.7253 5.90845 28.3494V19.8446C5.90845 19.4686 6.03295 19.1081 6.25456 18.8423C6.47616 18.5764 6.77673 18.4271 7.09013 18.4271H14.1802C14.4937 18.4271 14.7942 18.5764 15.0158 18.8423C15.2374 19.1081 15.3619 19.4686 15.3619 19.8446V28.3494C15.3619 28.7253 15.2374 29.0858 15.0158 29.3517C14.7942 29.6175 14.4937 29.7668 14.1802 29.7668ZM8.27182 26.9319H12.9986V21.262H8.27182V26.9319Z" fill="#0D0D0D"/>
<path d="M14.1802 43.9415H7.09013C6.77673 43.9415 6.47616 43.7922 6.25456 43.5263C6.03295 43.2605 5.90845 42.9 5.90845 42.524V34.0192C5.90845 33.6433 6.03295 33.2827 6.25456 33.0169C6.47616 32.7511 6.77673 32.6017 7.09013 32.6017H14.1802C14.4937 32.6017 14.7942 32.7511 15.0158 33.0169C15.2374 33.2827 15.3619 33.6433 15.3619 34.0192V42.524C15.3619 42.9 15.2374 43.2605 15.0158 43.5263C14.7942 43.7922 14.4937 43.9415 14.1802 43.9415ZM8.27182 41.1066H12.9986V35.4367H8.27182V41.1066Z" fill="#0D0D0D"/>
<path d="M14.1802 58.1162H7.09013C6.77673 58.1162 6.47616 57.9668 6.25456 57.701C6.03295 57.4352 5.90845 57.0746 5.90845 56.6987V48.1939C5.90845 47.818 6.03295 47.4574 6.25456 47.1916C6.47616 46.9258 6.77673 46.7764 7.09013 46.7764H14.1802C14.4937 46.7764 14.7942 46.9258 15.0158 47.1916C15.2374 47.4574 15.3619 47.818 15.3619 48.1939V56.6987C15.3619 57.0746 15.2374 57.4352 15.0158 57.701C14.7942 57.9668 14.4937 58.1162 14.1802 58.1162ZM8.27182 55.2812H12.9986V49.6114H8.27182V55.2812Z" fill="#0D0D0D"/>
<path d="M37.814 19.8445H17.7253V22.6795H37.814V19.8445Z" fill="#0D0D0D"/>
<path d="M37.814 25.5144H17.7253V28.3494H37.814V25.5144Z" fill="#0D0D0D"/>
<path d="M37.814 34.0192H17.7253V36.8542H37.814V34.0192Z" fill="#0D0D0D"/>
<path d="M37.814 39.6891H17.7253V42.524H37.814V39.6891Z" fill="#0D0D0D"/>
<path d="M30.7239 48.1939H17.7253V51.0288H30.7239V48.1939Z" fill="#0D0D0D"/>
<path d="M30.7239 53.8638H17.7253V56.6987H30.7239V53.8638Z" fill="#0D0D0D"/>
<path d="M13.3439 18.8427L6.25403 27.3472L7.92518 29.3518L11.4701 25.0996L15.0151 20.8473L13.3439 18.8427Z" fill="#5E60CE"/>
<path d="M13.3439 33.0174L6.25403 41.522L7.92518 43.5266L15.0151 35.022L13.3439 33.0174Z" fill="#5E60CE"/>
<path d="M40.4021 43.5L33.3123 52.0045L34.9834 54.0091L42.0733 45.5046L40.4021 43.5Z" fill="#5E60CE"/>
</svg>
