<svg width="271" height="75" viewBox="0 0 271 75" fill="none" xmlns="http://www.w3.org/2000/svg">
<path d="M61.0795 26.7343V20.3706H86.3636V26.7343H77.6136V49.4615H69.8295V26.7343H61.0795ZM92.5604 49.8025C91.1683 49.8025 89.9373 49.5752 88.8672 49.1206C87.8066 48.6566 86.9732 47.9559 86.3672 47.0184C85.7611 46.0809 85.4581 44.8877 85.4581 43.4388C85.4581 42.2456 85.6617 41.2276 86.0689 40.3848C86.4761 39.5326 87.0443 38.8365 87.7734 38.2968C88.5026 37.757 89.3501 37.3451 90.3161 37.061C91.2914 36.7769 92.3426 36.5922 93.4695 36.507C94.6911 36.4123 95.6712 36.2987 96.4098 36.1661C97.1579 36.024 97.6977 35.8299 98.0291 35.5837C98.3606 35.328 98.5263 34.9919 98.5263 34.5752V34.5184C98.5263 33.9502 98.3085 33.5146 97.8729 33.2115C97.4373 32.9085 96.8786 32.757 96.1967 32.757C95.4486 32.757 94.8378 32.9227 94.3643 33.2542C93.9003 33.5761 93.621 34.0733 93.5263 34.7456H86.3104C86.4051 33.4199 86.8265 32.1983 87.5746 31.0809C88.3321 29.954 89.4354 29.0544 90.8842 28.382C92.3331 27.7002 94.1418 27.3593 96.3104 27.3593C97.8729 27.3593 99.2744 27.5439 100.515 27.9133C101.755 28.2731 102.811 28.7797 103.683 29.4331C104.554 30.0771 105.217 30.8347 105.671 31.7059C106.135 32.5676 106.367 33.5051 106.367 34.5184V49.4615H99.0376V46.3934H98.8672C98.4316 47.2078 97.9013 47.8659 97.2763 48.3678C96.6607 48.8697 95.9553 49.2343 95.1598 49.4615C94.3738 49.6888 93.5073 49.8025 92.5604 49.8025ZM95.1172 44.8593C95.7138 44.8593 96.2725 44.7362 96.7933 44.49C97.3236 44.2437 97.7545 43.8886 98.0859 43.4246C98.4174 42.9606 98.5831 42.3972 98.5831 41.7343V39.9161C98.3748 40.0013 98.1522 40.0818 97.9155 40.1576C97.6882 40.2333 97.442 40.3044 97.1768 40.3706C96.9212 40.4369 96.6465 40.4985 96.353 40.5553C96.0689 40.6121 95.7706 40.6642 95.4581 40.7115C94.852 40.8062 94.3549 40.9625 93.9666 41.1803C93.5878 41.3886 93.3037 41.649 93.1143 41.9615C92.9344 42.2646 92.8445 42.6055 92.8445 42.9843C92.8445 43.5903 93.0575 44.0544 93.4837 44.3763C93.9098 44.6983 94.4543 44.8593 95.1172 44.8593ZM130.057 34.7456H122.841C122.803 34.3006 122.647 33.917 122.372 33.5951C122.098 33.2731 121.742 33.0269 121.307 32.8564C120.881 32.6765 120.407 32.5865 119.886 32.5865C119.214 32.5865 118.636 32.7097 118.153 32.9559C117.67 33.2021 117.434 33.5525 117.443 34.007C117.434 34.329 117.571 34.6273 117.855 34.9019C118.149 35.1765 118.712 35.3896 119.545 35.5411L123.977 36.3365C126.212 36.7437 127.874 37.4303 128.963 38.3962C130.062 39.3526 130.616 40.6358 130.625 42.2456C130.616 43.7987 130.152 45.1481 129.233 46.2939C128.324 47.4303 127.079 48.311 125.497 48.936C123.925 49.5515 122.131 49.8593 120.114 49.8593C116.78 49.8593 114.171 49.1775 112.287 47.8138C110.412 46.4502 109.366 44.6509 109.148 42.4161H116.932C117.036 43.1074 117.377 43.6424 117.955 44.0212C118.542 44.3905 119.28 44.5752 120.17 44.5752C120.89 44.5752 121.482 44.4521 121.946 44.2059C122.42 43.9597 122.661 43.6093 122.67 43.1547C122.661 42.7381 122.453 42.4066 122.045 42.1604C121.648 41.9142 121.023 41.7153 120.17 41.5638L116.307 40.882C114.081 40.4937 112.415 39.7551 111.307 38.6661C110.199 37.5771 109.65 36.1756 109.659 34.4615C109.65 32.9464 110.047 31.6633 110.852 30.6121C111.667 29.5515 112.827 28.7466 114.332 28.1973C115.848 27.6386 117.642 27.3593 119.716 27.3593C122.869 27.3593 125.355 28.0127 127.173 29.3195C129.001 30.6263 129.962 32.435 130.057 34.7456ZM140.675 44.2911L140.732 34.9729H141.754L147.038 27.6434H155.845L146.982 39.0638H144.766L140.675 44.2911ZM133.629 49.4615V20.3706H141.47V49.4615H133.629ZM147.095 49.4615L142.095 40.8252L147.209 35.257L156.072 49.4615H147.095Z" fill="#F2F2F2"/>
<path d="M164.947 26.7343V20.3706H190.231V26.7343H181.481V49.4615H173.697V26.7343H164.947ZM200.664 49.8593C198.297 49.8593 196.27 49.3905 194.585 48.453C192.899 47.5061 191.606 46.1898 190.707 44.5042C189.807 42.8091 189.357 40.8441 189.357 38.6093C189.357 36.3744 189.807 34.4142 190.707 32.7286C191.606 31.0335 192.899 29.7172 194.585 28.7797C196.27 27.8328 198.297 27.3593 200.664 27.3593C203.031 27.3593 205.058 27.8328 206.744 28.7797C208.429 29.7172 209.722 31.0335 210.621 32.7286C211.521 34.4142 211.971 36.3744 211.971 38.6093C211.971 40.8441 211.521 42.8091 210.621 44.5042C209.722 46.1898 208.429 47.5061 206.744 48.453C205.058 49.3905 203.031 49.8593 200.664 49.8593ZM200.721 44.0638C201.384 44.0638 201.957 43.8413 202.44 43.3962C202.923 42.9511 203.297 42.3167 203.562 41.4928C203.827 40.6689 203.96 39.6888 203.96 38.5525C203.96 37.4066 203.827 36.4265 203.562 35.6121C203.297 34.7883 202.923 34.1538 202.44 33.7087C201.957 33.2636 201.384 33.0411 200.721 33.0411C200.02 33.0411 199.419 33.2636 198.917 33.7087C198.415 34.1538 198.031 34.7883 197.766 35.6121C197.501 36.4265 197.369 37.4066 197.369 38.5525C197.369 39.6888 197.501 40.6689 197.766 41.4928C198.031 42.3167 198.415 42.9511 198.917 43.3962C199.419 43.8413 200.02 44.0638 200.721 44.0638ZM226.232 49.4615H215.039V20.3706H226.119C229.111 20.3706 231.696 20.953 233.874 22.1178C236.062 23.2731 237.747 24.9398 238.931 27.1178C240.124 29.2864 240.721 31.8858 240.721 34.9161C240.721 37.9464 240.129 40.5506 238.945 42.7286C237.762 44.8972 236.085 46.5638 233.917 47.7286C231.748 48.8839 229.187 49.4615 226.232 49.4615ZM222.937 42.757H225.948C227.388 42.757 228.614 42.525 229.627 42.061C230.65 41.597 231.426 40.7968 231.957 39.6604C232.496 38.524 232.766 36.9426 232.766 34.9161C232.766 32.8896 232.492 31.3081 231.942 30.1718C231.403 29.0354 230.607 28.2352 229.556 27.7712C228.514 27.3072 227.236 27.0752 225.721 27.0752H222.937V42.757ZM255 49.8593C252.633 49.8593 250.606 49.3905 248.92 48.453C247.235 47.5061 245.942 46.1898 245.043 44.5042C244.143 42.8091 243.693 40.8441 243.693 38.6093C243.693 36.3744 244.143 34.4142 245.043 32.7286C245.942 31.0335 247.235 29.7172 248.92 28.7797C250.606 27.8328 252.633 27.3593 255 27.3593C257.367 27.3593 259.394 27.8328 261.08 28.7797C262.765 29.7172 264.058 31.0335 264.957 32.7286C265.857 34.4142 266.307 36.3744 266.307 38.6093C266.307 40.8441 265.857 42.8091 264.957 44.5042C264.058 46.1898 262.765 47.5061 261.08 48.453C259.394 49.3905 257.367 49.8593 255 49.8593ZM255.057 44.0638C255.72 44.0638 256.293 43.8413 256.776 43.3962C257.259 42.9511 257.633 42.3167 257.898 41.4928C258.163 40.6689 258.295 39.6888 258.295 38.5525C258.295 37.4066 258.163 36.4265 257.898 35.6121C257.633 34.7883 257.259 34.1538 256.776 33.7087C256.293 33.2636 255.72 33.0411 255.057 33.0411C254.356 33.0411 253.755 33.2636 253.253 33.7087C252.751 34.1538 252.367 34.7883 252.102 35.6121C251.837 36.4265 251.705 37.4066 251.705 38.5525C251.705 39.6888 251.837 40.6689 252.102 41.4928C252.367 42.3167 252.751 42.9511 253.253 43.3962C253.755 43.8413 254.356 44.0638 255.057 44.0638Z" fill="#5E60CE"/>
<path d="M40.2336 71.0385H9.50975C7.94331 71.0362 6.44157 70.2888 5.33393 68.9601C4.22629 67.6315 3.60319 65.8301 3.60132 63.9511L3.60132 15.7572C3.60139 15.3813 3.72593 15.0208 3.94755 14.7551L13.401 3.41532C13.6226 3.14947 13.9231 3.00008 14.2365 3H40.2336C41.8 3.00225 43.3018 3.74967 44.4094 5.07832C45.517 6.40697 46.1401 8.20835 46.142 10.0873V41.2716H43.7786V10.0873C43.7786 8.95953 43.4051 7.87792 42.7403 7.08044C42.0755 6.28296 41.1738 5.83494 40.2336 5.83494H14.7257L5.96469 16.344V63.9511C5.96469 65.0789 6.33819 66.1605 7.00301 66.958C7.66784 67.7555 8.56954 68.2035 9.50975 68.2035H40.2336C41.1738 68.2035 42.0755 67.7555 42.7403 66.958C43.4051 66.1605 43.7786 65.0789 43.7786 63.9511V61.1162H46.142V63.9511C46.1401 65.8301 45.517 67.6315 44.4094 68.9601C43.3018 70.2888 41.8 71.0362 40.2336 71.0385Z" fill="#F2F2F2"/>
<path d="M11.8731 17.1747H9.50977V14.3398H11.8731C12.1865 14.3398 12.4871 14.1904 12.7087 13.9246C12.9303 13.6588 13.0548 13.2982 13.0548 12.9223V4.41748H15.4182V12.9223C15.4182 14.0501 15.0447 15.1317 14.3799 15.9292C13.715 16.7267 12.8133 17.1747 11.8731 17.1747Z" fill="white"/>
<path d="M41.1423 61.1162C40.829 61.1161 40.5285 60.9667 40.3069 60.7009L37.0348 56.7759C36.9249 56.6442 36.8378 56.4879 36.7783 56.3158C36.7188 56.1438 36.6882 55.9593 36.6882 55.773C36.6882 55.5868 36.7188 55.4023 36.7783 55.2302C36.8378 55.0582 36.9249 54.9018 37.0348 54.7702L55.0331 33.1821C55.2547 32.9164 55.5552 32.7671 55.8685 32.7671C56.1819 32.7671 56.4824 32.9164 56.704 33.1821L59.9761 37.1071C60.0859 37.2387 60.1731 37.3951 60.2326 37.5672C60.292 37.7392 60.3226 37.9237 60.3226 38.11C60.3226 38.2962 60.292 38.4807 60.2326 38.6528C60.1731 38.8248 60.0859 38.9812 59.9761 39.1128L41.9778 60.7009C41.7562 60.9667 41.4557 61.1161 41.1423 61.1162ZM39.5412 55.7723L41.1423 57.6944L57.4697 38.1093L55.8685 36.1886L39.5412 55.7723Z" fill="#5E60CE"/>
<path d="M41.4152 61.1162H37.8702C37.5568 61.1162 37.2562 60.9669 37.0346 60.701C36.813 60.4352 36.6885 60.0747 36.6885 59.6987V55.4463H39.0518V58.2813H41.4152V61.1162Z" fill="#5E60CE"/>
<path d="M41.4153 15.7572H39.0519V12.9223C39.0519 12.5463 38.9274 12.1858 38.7058 11.92C38.4842 11.6541 38.1836 11.5048 37.8702 11.5048H35.5068V8.66986H37.8702C38.8104 8.66986 39.7121 9.11788 40.3769 9.91536C41.0418 10.7128 41.4153 11.7945 41.4153 12.9223V15.7572Z" fill="white"/>
<path d="M33.1434 8.66986H30.78V11.5048H33.1434V8.66986Z" fill="#5E60CE"/>
<path d="M17.7816 32.7668H10.6915C10.378 32.7668 10.0775 32.6175 9.85587 32.3517C9.63426 32.0858 9.50977 31.7253 9.50977 31.3494V22.8446C9.50977 22.4686 9.63426 22.1081 9.85587 21.8423C10.0775 21.5764 10.378 21.4271 10.6915 21.4271H17.7816C18.095 21.4271 18.3955 21.5764 18.6171 21.8423C18.8388 22.1081 18.9633 22.4686 18.9633 22.8446V31.3494C18.9633 31.7253 18.8388 32.0858 18.6171 32.3517C18.3955 32.6175 18.095 32.7668 17.7816 32.7668ZM11.8731 29.9319H16.5999V24.262H11.8731V29.9319Z" fill="#F2F2F2"/>
<path d="M17.7816 46.9415H10.6915C10.378 46.9415 10.0775 46.7922 9.85587 46.5263C9.63426 46.2605 9.50977 45.9 9.50977 45.524V37.0192C9.50977 36.6433 9.63426 36.2827 9.85587 36.0169C10.0775 35.7511 10.378 35.6017 10.6915 35.6017H17.7816C18.095 35.6017 18.3955 35.7511 18.6171 36.0169C18.8388 36.2827 18.9633 36.6433 18.9633 37.0192V45.524C18.9633 45.9 18.8388 46.2605 18.6171 46.5263C18.3955 46.7922 18.095 46.9415 17.7816 46.9415ZM11.8731 44.1066H16.5999V38.4367H11.8731V44.1066Z" fill="#F2F2F2"/>
<path d="M17.7816 61.1162H10.6915C10.378 61.1162 10.0775 60.9668 9.85587 60.701C9.63426 60.4352 9.50977 60.0747 9.50977 59.6987V51.1939C9.50977 50.818 9.63426 50.4574 9.85587 50.1916C10.0775 49.9258 10.378 49.7764 10.6915 49.7764H17.7816C18.095 49.7764 18.3955 49.9258 18.6171 50.1916C18.8388 50.4574 18.9633 50.818 18.9633 51.1939V59.6987C18.9633 60.0747 18.8388 60.4352 18.6171 60.701C18.3955 60.9668 18.095 61.1162 17.7816 61.1162ZM11.8731 58.2813H16.5999V52.6114H11.8731V58.2813Z" fill="#F2F2F2"/>
<path d="M41.4153 22.8445H21.3267V25.6795H41.4153V22.8445Z" fill="white"/>
<path d="M41.4153 28.5144H21.3267V31.3494H41.4153V28.5144Z" fill="white"/>
<path d="M41.4153 37.0192H21.3267V39.8542H41.4153V37.0192Z" fill="white"/>
<path d="M41.4153 42.6891H21.3267V45.524H41.4153V42.6891Z" fill="white"/>
<path d="M34.3252 51.1939H21.3267V54.0288H34.3252V51.1939Z" fill="white"/>
<path d="M34.3252 56.8638H21.3267V59.6987H34.3252V56.8638Z" fill="white"/>
<path d="M16.9451 21.8427L9.85522 30.3472L11.5264 32.3518L15.0713 28.0996L18.6163 23.8473L16.9451 21.8427Z" fill="#5E60CE"/>
<path d="M16.9454 36.0175L9.85547 44.522L11.5266 46.5266L18.6165 38.0221L16.9454 36.0175Z" fill="#5E60CE"/>
<path d="M44.0035 46.5L36.9136 55.0045L38.5847 57.0091L45.6746 48.5046L44.0035 46.5Z" fill="#5E60CE"/>
</svg>
